{"asset":{"version":"2.0","generator":"VECTARY"},"nodes":[{"translation":[0.07152786510540152,0,0],"rotation":[-0.7071067811865475,0,0,0.7071067811865476],"scale":[0.001,0.001,0.001],"name":"Layer 1","mesh":0},{"translation":[-0.0783004999628273,0.005916001134546576,1.3322676295501879e-18],"rotation":[0.002145790494817723,0,0,0.9999976977889261],"scale":[0.001,0.001,0.001],"name":"FF_logo_lightgrey","mesh":1}],"meshes":[{"primitives":[{"mode":4,"attributes":{"POSITION":0,"NORMAL":2},"material":0,"indices":1}]},{"primitives":[{"mode":4,"attributes":{"POSITION":3,"NORMAL":5},"material":1,"indices":4}]}],"accessors":[{"bufferView":0,"byteOffset":0,"componentType":5126,"count":8,"max":[10000000,10000000,10000000],"min":[-10000000,-10000000,-10000000],"type":"VEC3"},{"bufferView":1,"byteOffset":0,"componentType":5125,"count":36,"max":[36],"min":[0],"type":"SCALAR"},{"bufferView":2,"byteOffset":0,"componentType":5126,"count":8,"max":[1,1,1],"min":[-1,-1,-1],"type":"VEC3"},{"bufferView":3,"byteOffset":0,"componentType":5126,"count":1754,"max":[10000000,10000000,10000000],"min":[-10000000,-10000000,-10000000],"type":"VEC3"},{"bufferView":4,"byteOffset":0,"componentType":5125,"count":10452,"max":[10452],"min":[0],"type":"SCALAR"},{"bufferView":5,"byteOffset":0,"componentType":5126,"count":1754,"max":[1,1,1],"min":[-1,-1,-1],"type":"VEC3"}],"bufferViews":[{"buffer":0,"byteOffset":0,"byteLength":96,"target":34962},{"buffer":0,"byteOffset":96,"byteLength":144,"target":34963},{"buffer":0,"byteOffset":240,"byteLength":96,"target":34962},{"buffer":0,"byteOffset":336,"byteLength":21048,"target":34962},{"buffer":0,"byteOffset":21384,"byteLength":41808,"target":34963},{"buffer":0,"byteOffset":63192,"byteLength":21048,"target":34962}],"materials":[{"pbrMetallicRoughness":{"baseColorFactor":[0.9411764705882353,0.9098039215686274,0.8745098039215686,1],"roughnessFactor":0.9,"metallicFactor":0.5},"name":""},{"pbrMetallicRoughness":{"baseColorFactor":[1,0.12156862745098039,0.12156862745098039,1],"roughnessFactor":0.9,"metallicFactor":0.5},"name":""}],"scenes":[{"nodes":[0,1],"name":"ffs-logo"}],"buffers":[{"byteLength":84240,"uri":"ffs-logo.bin"}]}