{"asset":{"version":"2.0","generator":"VECTARY"},"nodes":[{"translation":[0,-0.016525254455427255,0.06458590814198442],"rotation":[-0.7071067811865475,0,0,0.7071067811865476],"scale":[0.001,0.001,0.001],"name":"Nice-Tribal-Puma-Tattoo-Design","mesh":0},{"translation":[0,0.07,-0.005744605279531264],"rotation":[0,0,0,1],"scale":[0.001,0.001,0.001],"name":"Layer 2","mesh":1}],"meshes":[{"primitives":[{"mode":4,"attributes":{"POSITION":0,"NORMAL":2},"material":0,"indices":1}]},{"primitives":[{"mode":4,"attributes":{"POSITION":3,"NORMAL":5},"material":1,"indices":4}]}],"accessors":[{"bufferView":0,"byteOffset":0,"componentType":5126,"count":346486,"max":[10000000,10000000,10000000],"min":[-10000000,-10000000,-10000000],"type":"VEC3"},{"bufferView":1,"byteOffset":0,"componentType":5125,"count":2078784,"max":[2078784],"min":[0],"type":"SCALAR"},{"bufferView":2,"byteOffset":0,"componentType":5126,"count":346486,"max":[1,1,1],"min":[-1,-1,-1],"type":"VEC3"},{"bufferView":3,"byteOffset":0,"componentType":5126,"count":1922,"max":[10000000,10000000,10000000],"min":[-10000000,-10000000,-10000000],"type":"VEC3"},{"bufferView":4,"byteOffset":0,"componentType":5125,"count":11520,"max":[11520],"min":[0],"type":"SCALAR"},{"bufferView":5,"byteOffset":0,"componentType":5126,"count":1922,"max":[1,1,1],"min":[-1,-1,-1],"type":"VEC3"}],"bufferViews":[{"buffer":0,"byteOffset":0,"byteLength":4157832,"target":34962},{"buffer":0,"byteOffset":4157832,"byteLength":8315136,"target":34963},{"buffer":0,"byteOffset":12472968,"byteLength":4157832,"target":34962},{"buffer":0,"byteOffset":16630800,"byteLength":23064,"target":34962},{"buffer":0,"byteOffset":16653864,"byteLength":46080,"target":34963},{"buffer":0,"byteOffset":16699944,"byteLength":23064,"target":34962}],"materials":[{"pbrMetallicRoughness":{"baseColorFactor":[0.4,1,0.12156862745098039,1],"roughnessFactor":0.9,"metallicFactor":0.5},"name":""},{"pbrMetallicRoughness":{"baseColorFactor":[0.6,0.6,0.6,1],"roughnessFactor":0.9,"metallicFactor":0.5},"name":""}],"scenes":[{"nodes":[0,1],"name":"puma-coin"}],"buffers":[{"byteLength":16723008,"uri":"puma-coin.bin"}]}